<?xml version="1.0" encoding="UTF-8" standalone="no"?>
<svg
   xmlns:dc="http://purl.org/dc/elements/1.1/"
   xmlns:cc="http://creativecommons.org/ns#"
   xmlns:rdf="http://www.w3.org/1999/02/22-rdf-syntax-ns#"
   xmlns:svg="http://www.w3.org/2000/svg"
   xmlns="http://www.w3.org/2000/svg"
   viewBox="0 0 767.78027 766.01221"
   height="766.01221"
   width="767.78027"
   xml:space="preserve"
   id="svg2"
   version="1.1"><metadata
     id="metadata8"><rdf:RDF><cc:Work
         rdf:about=""><dc:format>image/svg+xml</dc:format><dc:type
           rdf:resource="http://purl.org/dc/dcmitype/StillImage" /></cc:Work></rdf:RDF></metadata><defs
     id="defs6" /><g
     transform="matrix(1.3333333,0,0,-1.3333333,1.0532238e-4,766.01144)"
     id="g10"><g
       transform="scale(0.1)"
       id="g12"><path
         id="path14"
         style="fill:#ee222f;fill-opacity:1;fill-rule:evenodd;stroke:none"
         d="m 1253.03,4021.74 c -1.97,-0.36 -3.94,-0.72 -5.92,-1.08 -0.67,-4.07 -2.09,-8.16 -1.91,-12.19 1.29,-30.79 2.07,-61.63 4.58,-92.33 5.1,-62.57 12.1,-125.01 16.69,-187.61 7.58,-103.48 13.68,-207.07 20.79,-310.59 4.74,-69.06 10.6,-138.05 15.13,-207.12 4.42,-67.15 8.37,-134.33 11.44,-201.55 3.49,-76.25 4.73,-152.6 8.85,-228.81 4.54,-84.02 11.12,-167.93 17.04,-251.89 4.09,-58.14 8.91,-116.24 12.8,-174.4 4.89,-72.96 8.69,-146 13.84,-218.95 4.04,-57.07 9.74,-114.01 14.11,-171.06 4.5,-58.63 8.7,-117.28 12.24,-175.96 3.51,-58.17 5.82,-116.41 9.18,-174.59 0.81,-13.86 3.25,-27.69 6.08,-41.29 0.72,-3.43 5.89,-5.92 9.01,-8.84 2.78,3.01 5.94,5.77 8.22,9.12 1.63,2.4 2.43,5.52 2.99,8.44 10.17,52.68 22.34,105.08 29.76,158.15 7.02,50.21 9.2,101.1 13.15,151.72 1.27,16.24 1.12,32.57 2.14,48.82 1.58,25.3 5.26,50.56 5.12,75.81 -0.39,67.78 -1.59,135.58 -3.84,203.31 -2.42,72.64 -5.5,145.28 -10,217.81 -3.55,57.07 -9.57,114 -14.72,170.97 -5.42,60.09 -12.17,120.09 -16.44,180.26 -6.2,87.52 -9.69,175.23 -16.31,262.71 -3.75,49.6 -11.4,98.9 -17.38,148.32 -1.49,12.31 -3.1,24.6 -5.06,36.84 -4.92,30.83 -10.39,61.58 -15.05,92.44 -4.14,27.43 -6.89,55.09 -11.37,82.47 -5.12,31.34 -11.98,62.41 -17.15,93.76 -7.52,45.54 -13.72,91.31 -21.42,136.82 -5.04,29.83 -12.09,59.3 -17.62,89.06 -10.07,54.19 -19.53,108.5 -29.51,162.72 -5.85,31.81 -11.8,63.62 -18.52,95.25 -2.42,11.41 -7.22,22.32 -10.94,33.46 z m 1622.4,-680.29 c -0.99,-0.09 -1.98,-0.17 -2.97,-0.25 1.58,-15.81 2.81,-31.68 4.86,-47.43 1.46,-11.3 7.48,-19.11 20.09,-16.62 30.76,6.05 61.44,12.52 92.06,19.31 38.88,8.63 77.5,18.57 116.53,26.46 73.57,14.87 147.31,28.93 221.07,42.82 34.27,6.45 68.58,13.89 103.22,17.08 71.96,6.63 144.09,12.03 216.27,15.48 68.55,3.26 137.31,5.8 205.88,4.23 69.61,-1.6 139.12,-8.29 208.64,-13.33 65.08,-4.71 130.17,-9.41 195.14,-15.55 53.51,-5.05 106.7,-13.69 160.26,-18 56.34,-4.53 112.92,-6.52 169.43,-8.23 30.22,-0.92 60.53,0.68 90.76,1.9 26.85,1.07 53.64,3.69 80.49,4.65 16.23,0.57 32.59,-1.78 48.79,-0.94 34.41,1.78 68.7,5.79 103.11,7.05 52.72,1.94 105.56,1.08 158.24,3.76 53.18,2.7 106.2,8.48 159.32,12.49 23.77,1.8 47.7,1.71 71.4,4.05 45.46,4.5 90.74,10.74 136.2,15.12 35.14,3.37 70.51,4.37 105.63,7.96 6.54,0.67 13.39,7.81 17.8,13.68 1.15,1.54 -5.62,10.14 -9.87,14.38 -4.53,4.52 -10.15,8.1 -15.7,11.42 -63.2,37.75 -131.96,63.18 -201.61,84.79 -72.76,22.56 -147.53,39.42 -224.37,40.06 -64.16,0.53 -128.36,-1.21 -192.5,-3.19 -43.76,-1.35 -87.45,-6.67 -131.19,-6.87 -44.71,-0.21 -89.47,3.19 -134.15,5.89 -30.26,1.83 -60.65,3.72 -90.59,8.18 -42.26,6.3 -84.37,14.04 -126.18,22.89 -56.06,11.88 -112.5,22.85 -167.42,38.85 -83.3,24.26 -164.86,54.46 -242.75,92.83 -81.74,40.27 -161.6,84.35 -242.8,125.75 -46.56,23.73 -93.23,47.72 -141.54,67.46 -63.13,25.79 -127.57,48.53 -192.13,70.55 -42.37,14.45 -85.6,26.91 -129.14,37.28 -39.67,9.45 -80.19,15.57 -120.53,21.86 -36.86,5.75 -73.87,11.56 -111.03,14.06 -40.97,2.76 -82.22,3.12 -123.29,2.08 -58.71,-1.49 -117.38,-4.89 -176.03,-8.16 -18.96,-1.06 -21.88,-8.31 -12.59,-25.37 5.94,-10.93 13.4,-21.55 16.68,-33.29 10.65,-38.11 21.52,-76.33 28.89,-115.16 9.46,-49.86 16.02,-100.29 23.06,-150.59 6.13,-43.82 12.78,-87.68 16.39,-131.75 7.09,-86.46 12.23,-173.09 18.17,-259.64 z M 2074.25,2034.11 c 0.06,0.58 0.12,1.16 0.18,1.74 5.49,0 11.02,-0.43 16.47,0.06 60.52,5.52 121.18,9.98 181.48,17.3 32.06,3.89 64.71,9.42 95,20.13 72.7,25.68 144.3,54.52 216.08,82.76 51.46,20.24 95.99,52.7 139.83,85.23 53.92,40 105.34,83.35 157.95,125.12 24.09,19.12 26.23,26.69 18.56,56.55 -4.8,18.75 -8.04,37.91 -11.36,57.01 -3.82,22 -6.76,44.14 -10.44,66.16 -6.31,37.64 -13.42,75.16 -19.19,112.87 -4.64,30.34 -7.51,60.94 -11.71,91.35 -5.83,42.22 -12.42,84.34 -18.19,126.58 -2.77,20.26 -4.67,40.65 -6.51,61.03 -3.26,36.19 -7.11,72.36 -8.97,108.64 -1.81,35.2 -1.79,70.51 -1.85,105.77 -0.02,15.05 -7.58,16.89 -19.29,13.2 -26.59,-8.38 -52.8,-18.15 -79.73,-25.23 -30.82,-8.11 -61.95,-15.95 -93.46,-20.22 -40.41,-5.48 -81.27,-8.82 -122.03,-10.28 -50.63,-1.82 -101.45,-2.82 -152.01,-0.34 -41.6,2.04 -82.94,9.59 -124.38,14.86 -43.4,5.51 -86.72,11.89 -130.2,16.67 -54.52,6 -109.06,12.81 -163.79,15.48 -51.16,2.5 -102.62,1.5 -153.83,-0.66 -43.74,-1.84 -88.08,-3.76 -130.78,-12.43 -52.46,-10.65 -105.43,-21.85 -154.51,-45.11 -12.8,-6.07 -26.32,-12.58 -26.43,-29.16 -0.13,-19.88 1.45,-39.78 2.77,-59.64 3.68,-55.67 7.59,-111.32 11.45,-166.97 3.27,-47.18 6.25,-94.38 10.01,-141.51 3.07,-38.66 7.34,-77.22 10.64,-115.86 4.22,-49.51 9.1,-99 11.72,-148.61 3.97,-75.09 7.19,-150.24 8.87,-225.41 1.02,-45.62 9.79,-90.88 3.62,-136.93 -3.14,-23.35 -0.83,-47.43 -0.89,-71.19 -0.06,-23.27 8.99,-28.43 31.13,-21.06 47.22,15.73 94.31,32.38 142.49,44.49 40.92,10.28 83.1,16.81 125.12,21.1 34.01,3.48 68.73,3.11 102.92,0.96 51.19,-3.21 102.18,-9.48 153.26,-14.45 z m -565.32,-243.88 c -5.44,-34.99 -10.55,-70.05 -16.41,-104.98 -6.75,-40.3 -13.12,-80.73 -21.65,-120.67 -6.46,-30.18 -15.56,-59.86 -24.78,-89.35 -1.45,-4.63 -9.9,-10.28 -14.85,-10.04 -20.81,1.03 -41.52,3.98 -62.24,6.49 -15.33,1.85 -30.56,5.04 -45.93,5.92 -14.16,0.81 -19.21,8.23 -20.07,20.9 -2.3,34.27 -4.93,68.51 -7.06,102.79 -4.87,78.6 -9.69,157.2 -14.14,235.83 -1.38,24.38 -1.16,48.85 -2.31,73.25 -1.47,30.82 -3.69,61.59 -5.44,92.39 -4.4,77.16 -8.88,154.31 -13.01,231.49 -3.52,65.62 -6.14,131.3 -9.98,196.91 -3.93,67.18 -9.39,134.26 -13.18,201.44 -3,53.23 -4.79,106.53 -6.58,159.82 -2.36,70.67 -4.5,141.36 -6.14,212.05 -1.03,44.6 0.17,89.29 -1.67,133.85 -2.71,65.7 -7.03,131.34 -11.05,196.98 -5.54,90.12 -11.25,180.22 -17.24,270.3 -5.39,80.98 -11.37,161.93 -16.88,242.91 -4.88,71.59 -9.41,143.23 -14.21,214.83 -4.4,65.51 -8.98,131.01 -13.46,196.52 -0.5,7.46 -1,14.93 -1.26,22.41 -0.56,16.02 -4.77,28.97 -18.76,39.97 -37.76,29.69 -41.38,83.03 -10.46,116.87 29.08,31.81 89.13,39.95 122.82,2.05 7.43,-8.36 14,-18.16 18.31,-28.42 5.26,-12.52 12.17,-17.84 26.14,-16.36 36.18,3.84 72.51,9.41 108.73,9.06 53.75,-0.54 107.61,-3.99 161.15,-9.12 65.56,-6.28 128.01,-25.76 186.91,-54.97 28.03,-13.89 53.21,-33.54 81.19,-47.53 51.68,-25.85 103.66,-51.44 157.03,-73.44 55.1,-22.7 111.16,-43.97 168.36,-60.44 62.68,-18.04 126.75,-32.03 190.96,-43.74 54.33,-9.91 109.57,-17.39 164.69,-19.92 81.58,-3.75 163.42,-3.28 245.13,-2.49 60.49,0.57 120.93,5.46 181.43,6.62 48.64,0.92 97.45,1.14 145.96,-2 44.57,-2.89 89.12,-9.02 133.15,-16.75 55.42,-9.73 110.59,-21.32 165.32,-34.43 35.65,-8.53 70.88,-19.68 105.33,-32.32 57.87,-21.23 115.04,-44.4 172.36,-67.12 25.41,-10.08 51.12,-19.76 75.53,-31.95 35.51,-17.75 69.91,-37.7 104.87,-56.54 30.59,-16.49 61.08,-33.18 92,-49.01 52.23,-26.71 104.13,-54.25 157.42,-78.7 38.68,-17.75 78.91,-32.5 119.3,-46.08 75.05,-25.25 150.67,-48.67 229.22,-61.17 44.69,-7.11 88.98,-16.78 133.7,-23.55 18.94,-2.86 38.59,-0.77 57.86,-1.75 13.77,-0.71 27.44,-3.37 41.2,-4.18 86.09,-5.08 172.31,-7.16 258.18,1.74 59.6,6.19 119.12,9.73 178.83,5.86 63.37,-4.09 126.48,-10.94 187.46,-30.25 45.94,-14.55 92.55,-27.35 137.49,-44.54 44.27,-16.94 88.55,-34.65 127.7,-62.81 19.17,-13.8 40.27,-24.9 60.47,-37.26 2.98,-1.82 6.06,-3.58 8.72,-5.81 14.49,-12.11 12.95,-22.87 -4.56,-29.76 -56.43,-22.19 -113.1,-43.79 -169.35,-66.43 -21.63,-8.71 -42.39,-19.58 -63.52,-29.52 -40.55,-19.09 -81.36,-37.66 -121.56,-57.47 -58.87,-29.01 -117.57,-58.38 -175.82,-88.61 -47.29,-24.53 -93.81,-50.53 -140.66,-75.91 -38.45,-20.83 -76.38,-42.71 -115.46,-62.28 -45.33,-22.68 -91.54,-43.59 -137.59,-64.78 -28.04,-12.9 -56.14,-25.86 -84.89,-37.02 -39.85,-15.49 -80.33,-29.4 -120.59,-43.83 -30.49,-10.93 -61.03,-21.74 -91.62,-32.35 -8.47,-2.94 -17.28,-4.91 -25.87,-7.5 -44.25,-13.36 -88.26,-27.56 -132.78,-39.9 -27.27,-7.55 -55.32,-12.22 -82.99,-18.29 -34.58,-7.58 -68.92,-16.48 -103.75,-22.54 -33.66,-5.84 -67.89,-8.38 -101.77,-13.09 -38.88,-5.41 -77.47,-13.48 -116.5,-17 -45.94,-4.14 -92.22,-4.51 -138.35,-6.73 -74.52,-3.6 -147.67,-15.31 -218.42,-39.43 -44.67,-15.23 -89.72,-29.9 -133.01,-48.5 -38.72,-16.65 -75.83,-37.34 -112.62,-58.07 -46.42,-26.15 -92.74,-52.73 -137.39,-81.76 -54.67,-35.53 -108.15,-72.99 -161,-111.2 -27.8,-20.11 -52.69,-44.18 -79.69,-65.47 -39.48,-31.12 -79.09,-62.13 -119.72,-91.71 -31.73,-23.1 -62.99,-48.44 -98.16,-64.89 -68.97,-32.25 -139.84,-60.8 -211.2,-87.47 -65.03,-24.3 -133.16,-37.22 -202.41,-43.9 -22.22,-2.14 -44.09,-8.32 -66.32,-9.9 -28.6,-2.02 -57.5,-2.99 -86.1,-1.36 -51.21,2.92 -102.23,10.02 -153.45,11.75 -40.11,1.35 -80.45,-2.21 -120.62,-4.61 -69.35,-4.14 -135.09,-24.21 -199.93,-47.5 -20.12,-7.22 -39.54,-16.35 -59.5,-24.04 -21.02,-8.11 -21.75,-27.16 -23.54,-44.56 -3.6,-35.09 -5.55,-70.34 -8.17,-105.54 0.9,-0.12 1.81,-0.25 2.72,-0.39" /><path
         id="path16"
         style="fill:#231f20;fill-opacity:1;fill-rule:evenodd;stroke:none"
         d="m 4568.98,1157.88 c -2.17,12.72 -0.89,23.55 -5.62,29.95 -27.76,37.56 -58.79,60.89 -100.68,24.64 -41.69,-36.08 -78.61,-77.66 -117.54,-116.91 -9.06,-9.14 -8.85,-18.77 0.44,-27.45 23.3,-21.76 46.69,-43.43 70.43,-64.69 10.7,-9.58 22.71,-8.619 32.09,1.58 35.45,38.46 71.03,76.86 104.9,116.69 8.77,10.31 11.55,25.71 15.98,36.19 z m 199.35,-173.79 c -2.47,33.96 -10.27,49.65 -30.86,68.33 -33.08,30.01 -70.97,32.59 -103.28,1.92 -40.81,-38.74 -78.67,-80.598 -117.52,-121.371 -7.4,-7.758 -6.45,-16.969 1.08,-24.059 28.6,-26.93 57.04,-54.078 86.65,-79.89 20.48,-17.848 28.53,-16.309 47.63,4.062 28.63,30.527 58.1,60.34 85.44,92 16.13,18.668 31.01,39.328 30.86,59.008 z m -108.73,227.55 c 3.11,-38.78 3.08,-38.62 35.73,-33.59 60.02,9.25 106.3,-14.45 144.51,-59.26 27.25,-31.97 41.95,-68.04 44.33,-110.06 3.24,-57.039 -24.82,-100.39 -60.2,-140.019 -53.52,-59.949 -108.45,-118.641 -162.71,-177.93 -6.04,-6.609 -11.2,-14.07 -17.48,-20.449 -13.24,-13.441 -20.81,-13.832 -34.54,-1.48 -35.95,32.359 -71.64,65.019 -107.5,97.48 -38.72,35.059 -77.72,69.84 -116.26,105.117 -36.39,33.321 -72.34,67.133 -108.49,100.723 -27.32,25.387 -54.57,50.828 -81.97,76.118 -14.05,12.98 -15.08,17.82 -2.31,32.17 28.54,32.03 57.58,63.63 86.71,95.14 30.45,32.95 60.89,65.93 91.99,98.26 34.14,35.52 72.4,64.14 123.33,71.17 47.97,6.6 87.23,-11.37 121.01,-42.92 27.41,-25.62 47.13,-55.83 43.85,-90.47" /><path
         id="path18"
         style="fill:#231f20;fill-opacity:1;fill-rule:evenodd;stroke:none"
         d="m 4065.44,849.43 c -14.87,-4.5 -27.55,-6.399 -38.32,-11.969 -26.07,-13.52 -51.56,-28.231 -76.7,-43.449 -22.14,-13.403 -44.02,-27.391 -64.81,-42.762 -5.37,-3.969 -10.82,-16.809 -8.38,-20.898 17.05,-28.602 36.12,-56.012 54.65,-83.731 8.69,-13.019 19.51,-13.562 32.21,-5.652 38.5,24.023 78.19,46.301 115.29,72.301 16.54,11.601 31.25,28.71 40.92,46.5 11.55,21.261 -2.07,56.449 -24.95,74.109 -8.97,6.922 -20.35,10.711 -29.91,15.551 z m 122.92,-197.809 c -7.27,-2.121 -19.42,-3.281 -28.97,-8.879 -50.25,-29.41 -100.06,-59.613 -149.52,-90.332 -11.33,-7.031 -9.82,-18.769 -3.94,-29.41 5.54,-10.008 11.23,-19.988 17.51,-29.539 15.86,-24.129 32.05,-48.031 48.19,-71.981 8.88,-13.199 20.17,-12.628 32.49,-5.351 7.73,4.57 15.59,8.953 23.14,13.801 36.89,23.699 74.7,46.16 110.02,72.011 13.58,9.938 25.27,26.309 31.12,42.207 11.7,31.821 -5.85,58.524 -25.03,81.692 -12.3,14.871 -30.14,24.48 -55.01,25.781 z m -130.04,306.52 c 75.81,-1.129 118.1,-33.532 146.99,-85.211 19.52,-34.93 23.83,-72.469 9.44,-110.84 -3.72,-9.93 -0.95,-15.539 9.45,-16.981 8.89,-1.238 17.9,-1.55 26.73,-3.058 62.07,-10.61 100.74,-49.149 123.51,-105.481 21.68,-53.621 20.39,-106.39 -11.01,-156.238 -18.43,-29.25 -46.05,-49.852 -74.24,-68.312 -47.94,-31.391 -97.77,-59.891 -146.48,-90.149 -28,-17.391 -55.23,-35.992 -83.03,-53.719 -15.45,-9.863 -18.63,-8.82 -28.58,6.508 -31.18,47.961 -62.8,95.649 -93.54,143.91 -51.33,80.61 -102.19,161.532 -153.1,242.41 -16.19,25.731 -31.93,51.731 -47.82,77.641 -14.89,24.231 -13.68,30.617 10.08,45.801 29.41,18.789 59.18,37.008 88.7,55.648 48.08,30.36 95.45,61.922 144.38,90.871 27.94,16.539 58.34,28.891 78.52,27.2" /><path
         id="path20"
         style="fill:#231f20;fill-opacity:1;fill-rule:evenodd;stroke:none"
         d="m 1314.87,944.68 c 0.63,1.281 1.25,2.55 1.88,3.82 38.2,-1.199 75.06,41.582 81.85,68.88 7.45,29.93 -7.09,52.17 -26.43,72.25 -29.03,30.12 -58.54,59.79 -87.61,89.88 -15.23,15.76 -22.87,16.69 -38.79,1.29 -26.86,-25.98 -53.3,-52.39 -79.55,-78.99 -12.81,-12.98 -13.45,-20.56 -0.85,-33.14 34.16,-34.1 68.25,-68.37 104.21,-100.51 12.28,-10.98 30.03,-15.828 45.29,-23.48 z m 208.39,65.41 c 2.89,-74.16 -61.51,-151.231 -141.69,-163.641 -15.39,-2.379 -31.76,0.442 -47.55,2.043 -19.22,1.969 -22.32,-0.16 -20.04,-19.14 4.66,-38.672 -7.62,-71.731 -33.14,-100.141 -26.33,-29.32 -54.27,-57.262 -79.47,-87.492 -9.69,-11.637 -15.16,-27.508 -19.98,-42.297 -4.8,-14.75 -8.68,-17.774 -19.69,-7.262 -23.78,22.699 -46.67,46.332 -69.95,69.559 -11.97,11.953 -11.76,25.14 -2.1,37.66 17.33,22.422 35.42,44.262 53.46,66.121 17.36,21.059 36.99,40.539 52.11,63.07 19.94,29.7 15.03,47.442 -15.64,82.59 -25.53,29.262 -54.84,55.219 -82.68,82.449 -14.15,13.841 -24.08,14.571 -38.77,0.981 -20.78,-19.219 -40.6,-39.488 -60.704,-59.418 -25.434,-25.223 -50.707,-50.613 -76.137,-75.84 -8.144,-8.082 -16.754,-8.543 -24.863,-0.043 -20.629,21.652 -41.11,43.453 -61.606,65.231 -7.519,7.992 -3.156,14.96 2.692,20.941 27.172,27.82 54.551,55.439 81.937,83.039 36.489,36.8 72.934,73.65 109.621,110.24 28.6,28.52 57.57,56.69 86.33,85.06 38.71,38.16 77.42,76.32 116.05,114.58 19.19,19 24.05,18.7 42.51,0.04 51.23,-51.77 103.34,-102.68 154.03,-155 23.83,-24.59 46.16,-50.82 67.32,-77.77 18.62,-23.72 26.78,-52.07 27.95,-95.56" /><path
         id="path22"
         style="fill:#231f20;fill-opacity:1;fill-rule:evenodd;stroke:none"
         d="m 5077.98,4638.67 c -7.61,-4.69 -15.9,-8.59 -22.75,-14.22 -46.91,-38.62 -93.33,-77.85 -140.28,-116.42 -45,-36.96 -90.68,-73.1 -135.55,-110.2 -9.05,-7.48 -15.74,-7.31 -23.01,0.81 -17.97,20.12 -35.71,40.42 -53.71,60.51 -9.37,10.46 -7.86,18.89 2.82,27.74 89.87,74.39 179.11,149.51 269.4,223.39 52.42,42.9 106.34,83.96 159.7,125.7 8.1,6.33 16.75,6.73 24.17,-1.3 21.68,-23.45 42.99,-47.25 64.83,-70.54 8.69,-9.27 9.09,-18.46 4.83,-30.05 -27.02,-73.49 -53.84,-147.06 -80.05,-220.85 -19.53,-54.99 -38.15,-110.3 -56.83,-165.58 -1.73,-5.11 -1,-11.07 -1.75,-21.42 13.64,9.33 23.87,15.25 32.88,22.64 77.85,63.89 155.45,128.07 233.21,192.06 9.98,8.21 19.9,16.8 30.99,23.19 4.42,2.55 14.57,2.09 17.7,-1.2 19.63,-20.55 38.28,-42.07 56.7,-63.73 7.62,-8.95 6.99,-17.26 -3.16,-25.56 -36.58,-29.9 -72.59,-60.5 -108.81,-90.84 -44.33,-37.14 -88.54,-74.43 -133.06,-111.37 -37.13,-30.8 -74.74,-61.03 -111.92,-91.78 -24.59,-20.35 -49.16,-40.74 -72.96,-61.98 -9.83,-8.77 -17.5,-7.96 -25.52,0.93 -20.72,22.95 -42,45.47 -61.38,69.5 -4.97,6.16 -7.36,18.51 -4.85,25.96 33.74,100.2 68.62,200.02 103.09,299.98 11.04,32.04 21.87,64.15 32.56,96.31 2.64,7.94 4.31,16.19 6.43,24.3 -1.24,1.34 -2.48,2.68 -3.72,4.02" /><path
         id="path24"
         style="fill:#231f20;fill-opacity:1;fill-rule:evenodd;stroke:none"
         d="m 1543.87,535.32 c -1.48,-54.711 22.45,-99.582 66.91,-127.8 73.55,-46.711 142.02,-43.438 210.12,16.769 41.57,36.762 68.45,84.141 86.32,136.481 13.7,40.101 17.39,80.789 5.87,122.23 -17.22,61.922 -89.74,110 -153.86,111.531 -56.38,1.348 -102.01,-23.601 -135.49,-66.922 -22.91,-29.629 -41.42,-63.129 -58.61,-96.597 -15.04,-29.293 -23.64,-61.352 -21.26,-95.692 z m -116.45,1.559 c -5.31,62.742 13.67,120.101 39.87,175.57 20.12,42.61 45.25,81.821 79.44,115.082 66.25,64.438 144.54,94.699 236.13,78.098 56.9,-10.32 107.34,-37.641 154.21,-72.82 64.68,-48.528 95.55,-114.821 103.52,-191.637 3.39,-32.774 -3.42,-67.953 -12.01,-100.332 -19.2,-72.399 -53.79,-137.731 -107.23,-191 -68.4,-68.192 -150.74,-102.731 -247.35,-81.77 -72.72,15.789 -138.38,50.95 -188.14,107.621 -38.07,43.36 -58.24,96.2 -58.44,155.2 0,2 0,4 0,5.988" /><path
         id="path26"
         style="fill:#231f20;fill-opacity:1;fill-rule:evenodd;stroke:none"
         d="m 3389.06,5518.89 c -4.31,-8.05 -7.49,-11.88 -8.5,-16.22 -19.25,-82.6 -38.26,-165.26 -57.26,-247.92 -8.28,-35.96 -16.68,-71.91 -24.44,-107.98 -2.89,-13.46 -9.17,-18.59 -23.12,-15.26 -25.71,6.13 -51.57,11.62 -77.48,16.79 -13.11,2.62 -15.21,9.31 -12.35,21.56 15.9,67.97 31.52,136.01 46.49,204.19 16.34,74.47 31.42,149.21 47.94,223.63 8.41,37.95 18.72,75.47 28.19,113.18 2.83,11.28 10.01,15.53 21.29,12.84 32.48,-7.75 64.98,-15.43 97.44,-23.3 15.49,-3.76 17.99,-17.94 21.68,-29.82 12.11,-38.99 22.5,-78.53 34.72,-117.49 15.63,-49.89 32.47,-99.41 48.67,-149.12 12.05,-37 23.8,-74.1 35.96,-111.06 2.22,-6.76 5.77,-13.09 8.7,-19.61 1.68,-0.03 3.36,-0.07 5.03,-0.1 2.32,5.4 5.53,10.6 6.83,16.24 20.24,87.47 40.11,175.03 60.34,262.51 5.84,25.25 12.84,50.25 18.73,75.5 3.31,14.15 10.99,18.74 24.96,15.01 23.6,-6.31 47.49,-11.6 71.03,-18.1 19.27,-5.31 21.02,-9.92 16.14,-29.06 -10.21,-40.14 -20.61,-80.25 -29.69,-120.65 -15.76,-70.03 -30.65,-140.26 -45.76,-210.43 -13,-60.44 -26.05,-120.87 -38.58,-181.41 -6.55,-31.63 -7.87,-32.78 -39.17,-26.06 -23.91,5.13 -47.88,10 -71.92,14.44 -11.42,2.1 -18.54,7.31 -22.2,18.96 -12.34,39.39 -25.38,78.55 -38.4,117.72 -13.36,40.18 -27.11,80.24 -40.5,120.4 -16.26,48.76 -32.24,97.6 -48.55,146.34 -4.52,13.5 -9.78,26.76 -16.22,44.28" /><path
         id="path28"
         style="fill:#231f20;fill-opacity:1;fill-rule:evenodd;stroke:none"
         d="m 5387.5,3804.55 c 3.99,0 7.98,-0.16 11.97,0.05 3.47,0.17 6.93,0.76 10.41,1.17 75.89,8.92 140.69,42.1 197.44,91.81 36.26,31.76 52.25,73.08 28.66,121.86 -19.48,40.3 -40.96,79.66 -62.48,118.93 -2.03,3.7 -11.99,6.8 -16.04,5.04 -28.29,-12.27 -56.16,-25.54 -83.83,-39.14 -49.98,-24.55 -99.78,-49.47 -149.59,-74.37 -28.91,-14.46 -57.91,-28.77 -86.45,-43.94 -15.98,-8.5 -16.99,-13.03 -9.2,-28.49 12.34,-24.43 25.04,-48.67 37.5,-73.04 25.4,-49.68 63.39,-80.12 121.61,-79.88 z m 370.85,139.49 c -0.66,-44.58 -21.23,-87.19 -53.85,-124.67 -44.33,-50.94 -101.08,-83.75 -162.83,-108.18 -41.74,-16.51 -85,-28.1 -130.52,-29.03 -66.36,-1.37 -126.98,13.93 -174.9,62.5 -24.51,24.83 -43.19,54.14 -57.95,86.25 -14.35,31.19 -31.78,60.97 -47.88,91.36 -17.52,33.03 -34.94,66.13 -52.69,99.04 -4.68,8.67 -3.88,15.14 5.03,19.94 25.39,13.64 50.51,27.81 76.23,40.78 83.18,41.96 166.42,83.84 249.99,125.03 59.43,29.3 119.5,57.32 179.1,86.28 10.65,5.17 17.71,3.64 23.4,-6.83 19.06,-35.03 38.78,-69.72 57.48,-104.94 21.27,-40.08 40.8,-81.12 62.8,-120.79 19.25,-34.73 26.71,-71.59 26.59,-116.74" /><path
         id="path30"
         style="fill:#231f20;fill-opacity:1;fill-rule:evenodd;stroke:none"
         d="m 705.273,4832.94 c -6.535,-2.27 -17.968,-4.01 -26.718,-9.8 -14.352,-9.5 -27.407,-21.14 -40.203,-32.76 -26.528,-24.1 -52.528,-48.78 -78.727,-73.23 -9.844,-9.18 -10.625,-19.07 -0.992,-28.58 26.594,-26.25 53.355,-52.33 80.328,-78.19 10.105,-9.69 21.207,-10.58 31.879,-0.51 33.656,31.78 69.691,61.47 100.098,96.12 27.531,31.37 33.109,52.93 4.984,87.85 -16.805,20.88 -37.563,37.07 -70.649,39.1 z m 37.426,115.4 c 64.571,0.3 111.649,-38.29 139.258,-103.14 10.746,-25.24 14.859,-52.12 6.91,-79.86 -4.574,-15.97 -0.918,-19.96 14.688,-17.36 44.316,7.4 80.414,-9.18 111.935,-38.13 19.45,-17.86 37.64,-37.09 56.37,-55.73 18.7,-18.6 39.25,-33.71 66.36,-37.78 11.46,-1.72 13.9,-8.16 5.98,-16.23 -25.17,-25.62 -50.77,-50.84 -76.44,-75.96 -9.45,-9.25 -20.03,-6.15 -28.51,0.88 -30.28,25.1 -59.969,50.92 -89.898,76.44 -10.235,8.73 -19.68,18.74 -30.95,25.85 -36.23,22.86 -63.437,20.73 -95.265,-7.94 -28.875,-26.01 -56.379,-53.53 -84.922,-79.91 -10.074,-9.3 -9.899,-17.31 -0.512,-26.48 31.711,-30.98 63.32,-62.06 94.942,-93.12 14.582,-14.32 29.644,-28.2 43.484,-43.21 12.293,-13.33 10.883,-21.09 -2.289,-33.74 -16.906,-16.22 -33.813,-32.49 -49.871,-49.53 -9.938,-10.54 -19.434,-11.66 -29.692,-1.99 -19.953,18.81 -39.488,38.05 -59.293,57.02 -39.961,38.28 -80.359,76.11 -119.871,114.84 -33.086,32.43 -65.008,66.05 -97.754,98.84 -29.586,29.61 -59.722,58.66 -89.336,88.24 -7.734,7.73 -14.605,16.35 -21.585,24.79 -9.204,11.13 -8.415,21.26 2.433,31.41 30.246,28.26 59.981,57.06 90.129,85.42 38.09,35.84 75.957,71.93 114.73,107.02 33.891,30.68 72.879,50.44 128.969,49.36" /><path
         id="path32"
         style="fill:#231f20;fill-opacity:1;fill-rule:evenodd;stroke:none"
         d="m 4346.92,5288.31 c -1.7,-9.06 -4.42,-25.78 -8.09,-42.29 -2.76,-12.42 -10.37,-17.82 -23.23,-12.63 -26.39,10.65 -52.83,21.12 -79.12,31.99 -9.21,3.82 -13.91,10.14 -11.37,21.27 8.38,36.81 -7.81,64.37 -35.7,85.74 -31.48,24.11 -68.03,37.68 -106.84,44.46 -30.45,5.31 -58.06,-10.06 -71.34,-37.39 -7.73,-15.91 -3.52,-30.87 5.69,-43.67 8.92,-12.4 19.58,-24.13 31.44,-33.73 26.68,-21.58 55.1,-41.02 81.85,-62.52 31.06,-24.97 62.12,-50.11 91.36,-77.15 46.85,-43.32 49.84,-108.41 26.03,-161.62 -18.65,-41.7 -47.85,-72.93 -89.35,-90.34 -39.13,-16.42 -80.52,-21.04 -123.16,-13.13 -59.4,11.02 -113.84,33.73 -163.13,68.06 -53.21,37.05 -93.21,84.12 -95.48,152.44 -0.78,23.25 7.08,46.88 11.83,70.18 1.95,9.61 9.14,12.68 18.4,8.91 25.9,-10.53 51.67,-21.39 77.64,-31.75 12.75,-5.09 17.7,-13.69 14.44,-27.02 -10.74,-44.19 10.13,-74.59 44.55,-97.56 36.66,-24.46 76.95,-39.81 121.7,-40.95 33.98,-0.86 60.55,17.32 69.81,49.7 6.38,22.32 -6.75,39.55 -21.71,52.6 -27.76,24.21 -57.98,45.57 -86.57,68.86 -35.93,29.27 -74.82,56 -105.96,89.79 -40.87,44.37 -44.78,97.92 -21.16,152.33 9.89,22.8 25.28,44.39 42.32,62.65 30.21,32.36 71.76,40.35 113.88,41.05 101.25,1.66 181.49,-42.05 247.1,-117 26.23,-29.97 43.88,-62.7 44.17,-111.28" /><path
         id="path34"
         style="fill:#231f20;fill-opacity:1;fill-rule:evenodd;stroke:none"
         d="m 1453.82,5430.55 c 64.38,3.24 115.6,-20.55 152.16,-74.56 7.87,-11.64 7.26,-19.71 -5.55,-26.54 -25.92,-13.82 -51.48,-28.35 -77.71,-41.57 -3.95,-2 -13.05,-0.55 -15.72,2.67 -42.5,51.17 -101.48,39.18 -149.06,15.6 -22.38,-11.09 -43.81,-23.74 -57.79,-46.09 -13.83,-22.1 -16.12,-44.05 -1.01,-65.83 13.32,-19.21 32.89,-28.14 55.81,-24.32 41.79,6.96 83.39,15.2 124.88,23.86 46.25,9.64 91.33,25.22 139.34,25.59 49.25,0.37 88.07,-19.64 115.77,-59.74 28.28,-40.93 42.56,-85.7 30.34,-135.97 -9.28,-38.19 -27.23,-71.36 -56.05,-98.65 -60.7,-57.47 -131.62,-93.8 -215.31,-101.01 -53.84,-4.64 -104.97,5.56 -146.2,44.1 -12.22,11.43 -22.1,25.47 -32.35,38.85 -7.41,9.67 -3.89,18.4 5.97,23.6 25.59,13.48 51.19,27.08 77.65,38.67 5.52,2.43 15.61,-2.08 22.05,-5.96 15.94,-9.62 30.07,-22.58 46.63,-30.76 22.3,-11.02 45.98,-6.21 68.61,1.41 44.5,14.98 83.42,38.35 110.03,78.23 12.98,19.44 9.19,40.68 -0.25,60.08 -9.93,20.41 -28.54,30.4 -50.68,27.38 -32.03,-4.37 -63.99,-10.24 -95.37,-17.96 -58.15,-14.31 -116.01,-29.58 -176.41,-30.79 -46.62,-0.93 -80.9,21.81 -108.07,57.24 -29.01,37.83 -40.31,81.55 -35.08,128.21 4.31,38.37 20.48,73.08 48.84,100.09 55.84,53.16 121.69,86.17 199.1,94.06 8.39,0.85 16.95,0.11 25.43,0.11" /><path
         id="path36"
         style="fill:#231f20;fill-opacity:1;fill-rule:evenodd;stroke:none"
         d="m 2535.14,10.3594 c -37.45,8.3515 -74.96,16.4023 -112.25,25.3789 -5.1,1.2305 -11.18,6.1211 -13.25,10.8711 -17.15,39.289 -33.02,79.1406 -50.17,118.4296 -20.11,46.102 -41.12,91.813 -61.76,137.691 -0.81,1.809 -1.96,3.469 -2.72,5.282 -9.82,23.308 -17.91,25.828 -38.9,12.07 -9.58,-6.281 -18.62,-13.602 -28.78,-18.75 -20.08,-10.223 -26.42,-27.684 -30.68,-48.25 -10.23,-49.301 -21.73,-98.371 -33.79,-147.25 -1.11,-4.492 -10.55,-10.7109 -15.06,-9.9218 -29.44,5.0698 -58.68,11.4298 -87.77,18.3318 -11.17,2.637 -9.9,12.629 -8.13,21.09 7.28,34.668 15.03,69.238 22.41,103.898 11.01,51.68 21.83,103.411 32.75,155.122 13.37,63.39 26.79,126.769 40.11,190.168 7.18,34.16 14.35,68.32 21.19,102.55 3.95,19.711 9.17,23.539 28.84,19.078 24.33,-5.527 48.58,-11.386 72.93,-16.816 13.11,-2.934 18.56,-10.07 15.57,-23.66 -8.27,-37.52 -16.45,-75.07 -24.23,-112.68 -5.55,-26.851 -10.84,-53.762 -15.22,-80.812 -0.9,-5.532 1.04,-13.641 4.83,-17.121 2.72,-2.489 11.84,-1.02 16.15,1.722 23.96,15.25 47.18,31.629 70.9,47.231 38.72,25.468 77.69,50.547 116.42,75.98 16.16,10.598 32.12,21.547 47.97,32.598 13.1,9.14 26.43,15.66 43.27,11.5 34.4,-8.52 69.02,-16.121 103.38,-24.82 5.61,-1.411 10.3,-6.45 15.42,-9.809 -3.73,-4.32 -6.68,-9.852 -11.29,-12.77 -61.52,-38.882 -123.32,-77.289 -184.9,-116.062 -21.52,-13.527 -42.96,-27.25 -63.8,-41.797 -15.69,-10.934 -17,-16.883 -9.44,-34.121 39.38,-89.871 78.92,-179.672 118.47,-269.469 12.05,-27.3514 24.34,-54.6014 36.46,-81.9217 5.96,-13.4297 0.8,-20.8008 -14.93,-22.9609" /><path
         id="path38"
         style="fill:#231f20;fill-opacity:1;fill-rule:evenodd;stroke:none"
         d="m 2847.47,5591.02 c -1.64,-0.09 -3.29,-0.18 -4.93,-0.27 -2.35,-4.75 -5.24,-9.32 -6.97,-14.28 -10.44,-30.05 -20.99,-60.06 -30.77,-90.31 -8.57,-26.55 -16.77,-53.25 -24.06,-80.17 -6.21,-22.91 -1.43,-27.62 21.99,-27.17 26.37,0.49 52.76,0.45 79.11,-0.24 29.43,-0.76 36.49,7.9 27.45,35.19 -13.03,39.23 -25.67,78.59 -39.09,117.68 -6.89,20.09 -15.11,39.73 -22.73,59.57 z m -4.14,153.61 c 19.46,0 38.93,0.02 58.39,-0.01 10.09,-0.01 16.42,-4.33 19.99,-14.41 15.46,-43.63 31.33,-87.12 47.41,-130.53 19.4,-52.35 39.05,-104.61 58.8,-156.83 16.04,-42.37 32.5,-84.58 48.58,-126.93 17.33,-45.66 34.71,-91.31 51.49,-137.17 6.14,-16.75 4.05,-19.3 -13.41,-19.97 -31.39,-1.2 -62.83,-1.58 -94.19,-3.32 -13.37,-0.73 -20.33,4.71 -24.44,16.74 -8.69,25.43 -18.06,50.63 -26.88,76.01 -8.51,24.46 -14.41,28.75 -38.87,28.37 -57.39,-0.88 -114.78,-2.02 -172.18,-2.06 -15.8,-0.01 -25.31,-5.13 -30.31,-20.39 -8.69,-26.56 -18.93,-52.61 -27.33,-79.24 -4.18,-13.24 -11.76,-18.48 -25.18,-18.17 -28.34,0.66 -56.69,0.64 -85.04,1.02 -21.76,0.29 -24.34,4.43 -16.58,24.93 22.92,60.58 46.81,120.83 68.32,181.91 30.96,87.87 60.03,176.4 90.18,264.56 10.64,31.1 22.31,61.85 33.05,92.93 5.34,15.45 14.04,24.23 31.81,22.88 15.38,-1.18 30.92,-0.25 46.39,-0.25 0,-0.02 0,-0.04 0,-0.07" /><path
         id="path40"
         style="fill:#231f20;fill-opacity:1;fill-rule:evenodd;stroke:none"
         d="m 531.117,4114.05 c -45.922,0 -91.844,-0.02 -137.773,0.02 -25.985,0.02 -32.758,-10.06 -24.418,-35.14 4.84,-14.54 7.656,-29.79 12.969,-44.14 2.21,-5.99 7.66,-11.78 13.14,-15.4 44.863,-29.72 90.043,-58.93 135.203,-88.2 14.629,-9.48 16.422,-14.67 7.543,-29 -13.394,-21.64 -27.41,-42.9 -41.019,-64.4 -6.965,-11.02 -15.727,-12.81 -26.649,-6.06 -63.668,39.37 -127.422,78.6 -190.996,118.11 -64.308,39.96 -128.574,79.99 -192.5975,120.41 -25.7148,16.23 -50.7734,33.49 -76.0156,50.46 -11.61328,7.8 -13.34765,18.66 -6.43749,30 12.16799,19.99 25.33989,39.36 37.91019,59.11 7.9804,12.53 18.75,12.45 29.8007,5.88 38.6057,-22.95 76.7457,-46.69 115.4067,-69.56 15.421,-9.12 31.601,-17.02 47.671,-25 11.801,-5.86 17.758,-2.01 15.266,11.02 -4.941,25.86 -11.152,51.48 -17.223,77.11 -9.507,40.19 -19.097,80.37 -29.16,120.41 -4.461,17.77 -8.898,35.73 -15.593,52.7 -9.848,24.99 -3.86,47.21 9,68.44 12.375,20.43 25.98,40.13 39.128,60.1 2.184,3.32 4.493,6.65 7.243,9.49 9.179,9.47 17.047,8.22 20.808,-4.59 5.891,-20.04 10.27,-40.53 15.266,-60.83 12.351,-50.23 24.762,-100.44 37.008,-150.7 4.015,-16.47 7.976,-32.96 11.312,-49.58 3.102,-15.46 11.871,-24.1 27.664,-24 24.895,0.17 49.793,0.8 74.668,1.67 58.336,2.05 116.668,4.23 174.992,6.59 41.891,1.7 83.754,4.13 125.661,5.38 8.91,0.27 17.933,-3.15 26.91,-4.87 -3.567,-7.93 -6.297,-16.37 -10.848,-23.69 -15,-24.13 -31.574,-47.32 -45.781,-71.9 -11.27,-19.47 -26.625,-28.12 -48.77,-27.83 -40.426,0.52 -80.859,0.15 -121.289,0.15 0,-0.72 0,-1.44 0,-2.16" /><path
         id="path42"
         style="fill:#231f20;fill-opacity:1;fill-rule:evenodd;stroke:none"
         d="m 4693.72,5008.9 c 2.08,14.07 -2.55,15.83 -10.55,11.81 -5.32,-2.67 -10.32,-6.07 -15.29,-9.39 -26.45,-17.67 -52.92,-35.3 -79.21,-53.19 -23.89,-16.24 -47.49,-32.9 -71.36,-49.17 -10.41,-7.1 -10.06,-14.5 -0.41,-21.19 29.1,-20.16 58.19,-40.36 87.92,-59.59 16.52,-10.68 19.37,-9.13 28.14,8.34 1.12,2.23 2.15,4.51 2.99,6.85 11.88,32.79 23.95,65.51 35.48,98.42 8.22,23.49 15.71,47.24 22.29,67.11 z m 39.95,163.85 c 3.86,-1.79 8.18,-3.13 11.75,-5.57 29.24,-19.98 58.39,-40.11 87.49,-60.32 8.59,-5.97 11.71,-12.75 7.89,-24.19 -23.4,-70.07 -46.11,-140.37 -68.61,-210.74 -20.64,-64.58 -40.56,-129.39 -61.11,-194.01 -16.34,-51.37 -32.89,-102.68 -49.89,-153.84 -5.45,-16.38 -8.92,-17.4 -23.33,-6.94 -26.62,19.32 -52.7,39.41 -78.93,59.26 -8.04,6.09 -8.21,13.9 -5.16,22.86 10.47,30.68 20.15,61.64 31.1,92.13 4.13,11.53 1.34,19.35 -7.84,25.96 -50.62,36.43 -101.36,72.7 -151.83,109.35 -10.65,7.74 -19.63,8.58 -31.05,0.64 -23.71,-16.48 -48.52,-31.36 -72.58,-47.33 -12.73,-8.45 -22.94,-9.15 -36.15,1.44 -21.75,17.45 -45.88,31.92 -68.79,47.95 -15.42,10.79 -15.32,15.19 0.86,25.51 68.5,43.73 137.26,87.06 205.69,130.91 57.09,36.59 113.35,74.54 170.95,110.3 39.8,24.71 81.22,46.81 122.05,69.83 5.13,2.9 11.08,4.35 17.49,6.8" /><path
         id="path44"
         style="fill:#231f20;fill-opacity:1;fill-rule:evenodd;stroke:none"
         d="m 3770.85,284.18 c 6.17,-95.188 -48.77,-151.649 -124.59,-184.6487 -50.34,-21.9219 -103.92,-29.1602 -157.86,-29.3711 -53.18,-0.1914 -98.68,20.6796 -133.77,62.3788 -35.09,41.703 -50.88,91.703 -64.87,142.953 -11.82,43.27 -25.5,86.02 -38.47,128.969 -9.33,30.93 -18.95,61.769 -28.24,92.699 -8.61,28.672 -16.96,57.41 -25.42,86.121 -5.44,18.449 -2.75,24.68 15.31,30.551 24.7,8.027 49.7,15.078 74.51,22.758 10.59,3.281 17.57,-0.078 20.77,-10.57 10.72,-35.239 21.15,-70.559 31.92,-105.801 10.77,-35.25 21.94,-70.399 32.73,-105.649 9.94,-32.449 19.81,-64.922 29.3,-97.511 4.87,-16.7 8.39,-33.797 13.28,-50.489 13.09,-44.648 36.28,-82.519 85.6,-90 48.58,-7.359 95.17,4.481 131.46,39.672 21.34,20.66 25.98,49.957 20.34,78.258 -7.87,39.531 -18.55,78.551 -29.26,117.449 -13.09,47.52 -27.39,94.711 -41.31,141.992 -11.82,40.168 -23.73,80.309 -35.79,120.391 -7.83,26.008 -3.08,34.367 23.06,40.75 22.28,5.449 44.55,11.02 66.61,17.289 10.65,3.031 17.38,1.121 20.64,-10.121 8.33,-28.66 16.85,-57.25 25.37,-85.859 17.93,-60.192 37.88,-119.86 53.29,-180.692 14.74,-58.168 37.45,-115.019 35.39,-171.519" /><path
         id="path46"
         style="fill:#231f20;fill-opacity:1;fill-rule:evenodd;stroke:none"
         d="m 1688.46,5539.77 c 5.52,4.19 10.3,10.21 16.33,12 35.38,10.5 71.06,20 106.63,29.86 59.08,16.38 118.11,32.93 177.24,49.1 48.1,13.15 96.29,25.96 144.49,38.69 17.25,4.55 21.04,2.01 25.76,-14.72 5.69,-20.13 11.64,-40.19 17.4,-60.31 4.4,-15.37 1.55,-20.82 -14.14,-25.18 -42.31,-11.76 -84.65,-23.42 -127.07,-34.75 -20.64,-5.52 -23.89,-10.64 -17.96,-30.68 17.12,-57.81 33.92,-115.7 51.3,-173.42 22.96,-76.24 46.35,-152.35 69.56,-228.51 0.14,-0.48 0.41,-0.93 0.5,-1.41 7.13,-36.07 10.99,-32.38 -23.01,-42.42 -22.46,-6.64 -44.83,-13.6 -67.4,-19.81 -15.93,-4.37 -20.81,-1.48 -25.5,14 -28.32,93.52 -56.41,187.11 -84.84,280.6 -14.36,47.22 -29.51,94.19 -43.81,141.42 -4.7,15.54 -13.96,18.67 -28.47,14.4 -43.08,-12.68 -86.42,-24.49 -129.37,-37.59 -13.76,-4.2 -22.01,-2.18 -26,12.42 -6.68,24.49 -13.82,48.84 -21.64,76.31" /><path
         id="path48"
         style="fill:#231f20;fill-opacity:1;fill-rule:evenodd;stroke:none"
         d="m 2927.08,104.891 c 67.38,1.398 135.21,2.578 203.02,4.328 24.3,0.633 32.73,-6.321 33.64,-30.5081 0.59,-15.9687 0.86,-31.9414 1.59,-47.8789 0.62,-13.6406 -3.9,-22.36325 -19.11,-22.51169 C 3113.83,7.98047 3081.45,7.58984 3049.07,7.01172 3027.64,6.62109 3006.22,5.87109 2984.8,5.21094 2927.95,3.46875 2871.12,1.48047 2814.26,0.0898438 2796.85,-0.328125 2779.38,0.71875 2761.95,1.41016 c -12.6,0.5 -13.08,9.85154 -13.57,19.28124 -2.28,44.3594 -4.78,88.6996 -7.05,133.0586 -3.58,69.941 -7.44,139.879 -10.46,209.852 -3.12,72.269 -5.59,144.55 -7.85,216.839 -0.61,19.649 2.63,22.028 22.69,22.149 26.44,0.172 52.87,0.32 79.31,0.461 9.56,0.058 12.88,-5.25 13.33,-14.199 2.63,-52.243 6.38,-104.45 8.08,-156.731 2.21,-67.699 2.27,-135.473 4.42,-203.172 1.08,-33.867 4.61,-67.679 7.33,-101.5 0.92,-11.418 7.42,-18.5 19.07,-19.449 16.43,-1.309 32.89,-2.078 49.83,-3.109" /><path
         id="path50"
         style="fill:#231f20;fill-opacity:1;fill-rule:evenodd;stroke:none"
         d="m 2285.64,5671.16 c -1.94,12.13 3.31,18.22 14.83,20.16 29.5,4.96 58.98,9.98 88.46,15.02 10.98,1.89 16.73,-2.33 18.56,-13.63 5.1,-31.47 10.57,-62.88 16.3,-94.24 5.81,-31.83 12.57,-63.49 18.1,-95.37 8.42,-48.61 15.79,-97.41 24.27,-146.02 8.64,-49.6 18.1,-99.06 27.17,-148.58 3.5,-19.1 7.08,-38.19 10.27,-57.34 1.41,-8.45 -1.25,-14.64 -10.9,-16.27 -31.02,-5.27 -62,-10.71 -92.98,-16.18 -11.71,-2.07 -16.13,4.19 -18.01,14.53 -6.41,35.26 -13.29,70.44 -19.63,105.72 -14,77.85 -27.97,155.72 -41.6,233.65 -8.22,47.05 -15.61,94.25 -23.69,141.34 -3.29,19.14 -7.41,38.14 -11.15,57.21" /><path
         id="path52"
         style="fill:#231f20;fill-opacity:1;fill-rule:evenodd;stroke:none"
         d="m 1234.27,4653.33 c -5.52,5.27 -11.78,9.89 -16.34,15.83 -30.61,39.95 -60.78,80.23 -91.22,120.32 -30.12,39.67 -60.56,79.1 -90.53,118.88 -37.45,49.72 -74.578,99.68 -111.825,149.56 -10.687,14.31 -21.457,28.58 -31.871,43.09 -7.543,10.51 -7.472,19.97 4.219,28.19 22.457,15.77 44.531,32.08 66.856,48.04 10.089,7.21 18.847,4.72 26.05,-4.57 26.861,-34.66 53.931,-69.17 80.381,-104.14 46.02,-60.84 91.63,-121.99 137.43,-182.99 36.21,-48.26 72.52,-96.44 108.67,-144.74 13.55,-18.12 12.73,-23.25 -5.43,-36.37 -20.23,-14.62 -40.5,-29.18 -60.94,-43.5 -3.94,-2.77 -8.71,-4.34 -15.45,-7.6" /><path
         id="path54"
         style="fill:#231f20;fill-opacity:1;fill-rule:evenodd;stroke:none"
         d="m 1884.51,1443.02 c -40.61,0.83 -80.49,5.73 -115.11,29 -19.19,12.91 -32.18,32.03 -38.52,53.81 -9.18,31.54 7.38,90.5 48.44,105.93 23.73,8.91 71.25,1.23 80.49,-25.01 5.9,-16.75 -1.77,-30.82 -19.52,-32.11 -11.38,-0.84 -22.94,0.87 -34.36,0.38 -35.97,-1.57 -55.51,-39.35 -36.15,-70.18 14.65,-23.34 36.5,-36.16 63.52,-40.43 6.41,-1.01 13.19,-0.78 19.22,-2.81 33.81,-11.39 64.19,0.39 93.52,14.65 23.63,11.49 34.34,32.15 38.16,58.53 6.91,47.64 -22.26,75.42 -53.45,101.52 -22.48,18.8 -47.84,34.15 -71.62,51.45 -24.21,17.62 -38.56,42.5 -48.68,69.89 -2.05,5.56 -1.18,12.9 0.31,18.94 9.43,38.49 30.38,69.78 67.7,83.92 25.73,9.74 54.06,10.28 82.23,2.66 20.72,-5.59 42.65,-8.66 64.1,-8.95 15.51,-0.22 23.17,-4.85 26.67,-19.31 3.74,-15.49 9.24,-30.62 12.08,-46.23 1.02,-5.67 -3.46,-12.33 -5.43,-18.53 -5.54,3.38 -12.79,5.49 -16.35,10.33 -26.47,35.93 -61.62,55.61 -105.92,60.1 -22.03,2.23 -39.35,-4.62 -51.55,-23.12 -12.41,-18.83 -9.83,-38.79 -0.2,-57.04 13,-24.63 32.62,-43.01 56.99,-57.71 22.14,-13.37 41.52,-31.28 62.21,-47.08 3.16,-2.41 6.8,-4.18 10.15,-6.35 33.17,-21.58 53.65,-74.49 41.4,-109.21 -7,-19.85 -19,-35.57 -34.69,-50.94 -26.47,-25.95 -59.55,-35.57 -91.77,-48.35 -5.6,-2.22 -12.6,-1.7 -18.88,-1.27 -8.37,0.58 -16.67,2.29 -24.99,3.52" /><path
         id="path56"
         style="fill:#231f20;fill-opacity:1;fill-rule:evenodd;stroke:none"
         d="m 3560.92,1659.58 c 3.87,-12.44 4.32,-28.02 12.28,-36.7 18.71,-20.4 30.45,-19.72 55.92,-6.58 18.52,9.55 31.6,21.73 31.13,44.79 -0.18,8.65 3.63,17.43 5.89,26.08 7.49,28.8 18.99,57.94 -3.58,85.12 -4.5,5.42 -12.32,11.61 -18.48,11.48 -21.17,-0.46 -39.19,-9.21 -53.21,-26.05 -23.71,-28.47 -26.32,-62.51 -29.95,-98.14 z m -27.14,-195.55 c 5.6,4.52 10.75,9.8 16.86,13.46 30.53,18.26 46.99,48.33 64.05,77.4 8.86,15.1 4.15,22.51 -13.37,25.84 -12.65,2.4 -25.66,3.22 -38.56,4.08 -39.22,2.64 -51.98,18.75 -61.78,57.76 -9.55,38.05 7.07,69.09 29.14,99.11 20.71,28.17 47.29,47.01 79.5,58.03 29.66,10.15 60.49,19.57 88.26,-4.39 9.81,-8.46 19.45,-18.97 24.65,-30.57 19.5,-43.42 6.12,-85.07 -10.23,-126.07 -4.98,-12.5 -8.86,-25.65 -15.39,-37.3 -23.16,-41.29 -52.82,-77.01 -92.34,-103.99 -14.02,-9.56 -26.94,-20.76 -41.23,-29.87 -7.68,-4.91 -17.19,-6.97 -25.87,-10.32 -1.23,2.28 -2.46,4.55 -3.69,6.83" /><path
         id="path58"
         style="fill:#231f20;fill-opacity:1;fill-rule:evenodd;stroke:none"
         d="m 4093.24,1610.88 c -0.58,0.11 -1.15,0.22 -1.72,0.34 0,5.97 0.17,11.96 -0.03,17.93 -1.18,32.83 -28.31,48.16 -57.12,33.35 -22.64,-11.64 -41.39,-25.71 -44.88,-53.07 -3.58,-27.93 -9.93,-55.9 -9.76,-83.82 0.2,-31.4 23.04,-45.92 52.33,-35.09 28.03,10.37 44.42,33.19 51.41,61.65 4.72,19.21 6.61,39.12 9.77,58.71 z m -2.19,186.45 c -3.95,-3.49 -7.9,-6.96 -11.83,-10.46 -21.81,-19.4 -34.99,-44.44 -44.83,-71.19 -5.07,-13.81 -0.11,-19.51 14.43,-20.36 1.97,-0.12 4.17,-0.16 5.89,0.61 28.05,12.48 48.54,-5.76 70.17,-17.86 5.01,-2.8 8.63,-9.65 10.98,-15.42 10.99,-26.87 12.7,-54.91 1.92,-81.67 -6.75,-16.73 -20.69,-30.5 -28.16,-47.07 -13.08,-29 -39.62,-43.39 -64.84,-54.57 -20.03,-8.87 -46.2,-6.92 -69.17,-4.74 -9.86,0.94 -21.03,13.06 -27.22,22.87 -13.69,21.69 -19.14,46.27 -21.36,72.23 -3.61,41.91 16.17,76.63 32.41,111.79 23.38,50.62 63.86,86.96 110.67,116.16 5.19,3.24 12.15,3.61 18.29,5.32 0.89,-1.88 1.77,-3.76 2.65,-5.64" /><path
         id="path60"
         style="fill:#231f20;fill-opacity:1;fill-rule:evenodd;stroke:none"
         d="m 3734.78,1461.87 c -14.45,5.92 -28.23,10.59 -41.08,17.1 -11.79,5.98 -15.07,17.59 -11.64,29.58 3.09,10.82 6.92,22.43 21.03,24.54 13.2,1.98 23.31,-3.84 28.26,-15.06 7.79,-17.62 19.62,-28.26 39.05,-25.13 16.9,2.71 30.61,10.53 41.65,25.94 14.85,20.72 22.53,42.69 26.12,67.39 4.4,30.31 -10.19,49.3 -34.17,63.81 -1.27,0.77 -3.07,0.88 -4.05,1.87 -4.74,4.73 -9.28,9.64 -13.89,14.49 5.31,4.1 10.04,9.82 16.04,12.01 32,11.73 57.72,30.72 68.37,63.92 4.3,13.42 3.63,29.25 1.6,43.47 -0.79,5.48 -11.07,12.4 -17.95,13.69 -19.09,3.57 -34.97,-4.24 -47.8,-18.8 -8.23,-9.36 -16.37,-19.06 -26.04,-26.73 -4.27,-3.39 -12.24,-2.1 -18.52,-2.94 -0.23,6.36 -3.02,14.26 -0.28,18.82 19.84,32.86 47.97,54.34 87.59,56.48 14.62,0.78 30.79,2.39 43.83,-2.65 45.99,-17.76 45.56,-70.06 19.79,-104.2 -3,-3.97 -5.74,-8.29 -9.36,-11.63 -15.49,-14.32 -19.22,-28.22 -10.13,-49.88 7.5,-17.86 4.88,-40.07 6.01,-60.39 0.28,-4.71 -1.35,-10.31 -3.95,-14.28 -24.71,-37.71 -46.06,-79.15 -90.09,-98.5 -21.94,-9.64 -45.74,-15.05 -70.39,-22.92" /><path
         id="path62"
         style="fill:#231f20;fill-opacity:1;fill-rule:evenodd;stroke:none"
         d="m 2836.61,1602.04 c 10.84,6.86 21.06,12.53 29.91,19.85 1.24,1.03 -2.79,12.84 -6.88,15.05 -11.73,6.33 -24.39,4.98 -34.31,-4.58 -4.08,-3.93 -9.3,-12.2 -7.73,-15.28 2.85,-5.56 10.43,-8.69 19.01,-15.04 z m 66.35,-99.95 c -7.07,-8.69 -12.96,-18.8 -21.42,-25.81 -28.21,-23.42 -61.25,-34.65 -97.96,-34.24 -23.86,0.27 -40.79,12.94 -51.28,33.13 -9.01,17.38 -13.18,36.07 -10.25,56.42 5.94,41.3 20.17,78.07 52.61,105.97 26.7,22.96 87.61,45.41 125.23,23.27 20.74,-12.21 31.57,-30 37.13,-51.68 3.35,-13.09 -6.16,-24.37 -20.59,-25.51 -31.3,-2.47 -62.69,-3.79 -94.01,-6.03 -25.95,-1.85 -39.24,-13.62 -43.95,-38.45 -1.76,-9.26 -2.4,-18.72 -3.97,-28.02 -3.24,-19.24 2.45,-34.04 19.65,-44.51 16.42,-10 33.02,-8.55 48.25,0.26 14.92,8.62 28.12,20.23 42.17,30.4 4.51,3.27 9.28,6.18 13.93,9.26 1.5,-1.49 2.98,-2.98 4.46,-4.46" /><path
         id="path64"
         style="fill:#231f20;fill-opacity:1;fill-rule:evenodd;stroke:none"
         d="m 2481.81,1622.5 c -11.74,26.39 -7.93,47 12.28,68.64 14.91,15.97 19.11,41.42 31.08,60.8 19.48,31.55 50.74,45.54 86.63,47.69 13.52,0.81 27.73,-5.35 31.49,-20.46 1.68,-6.77 -0.98,-18.39 -5.91,-21.97 -4.93,-3.58 -17.17,-2.75 -22.71,1.14 -27.07,18.97 -36.51,17.3 -51.31,-13.13 -12.32,-25.32 -17.08,-50.15 5.86,-73.2 2.12,-2.12 -0.36,-13.76 -2.23,-14.18 -34.7,-7.79 -37.9,-37.2 -44.93,-63.94 -7.33,-27.89 -15.1,-55.68 -21.27,-83.82 -2.18,-9.91 -0.8,-20.77 0.04,-31.11 1.35,-16.82 -4.95,-24.41 -21.9,-23.92 -10.46,0.3 -20.95,1.2 -31.34,2.46 -11.17,1.34 -15.8,9.76 -7.69,17.61 22.04,21.34 18.38,50.67 26.15,76.25 7.06,23.22 10.66,47.47 15.76,71.14" /><path
         id="path66"
         style="fill:#231f20;fill-opacity:1;fill-rule:evenodd;stroke:none"
         d="m 3380.1,1455.9 c -9.19,1.24 -18.66,1.59 -27.4,4.28 -2.54,0.78 -5.62,10.41 -4,12.41 19.38,24.08 20.1,54.63 28.99,82.17 11.89,36.93 22.29,74.41 31.43,112.11 5.7,23.52 7.94,47.87 11.61,71.88 0.36,2.41 0.11,5.02 -0.35,7.43 -5.07,26.14 -1.52,34.03 23.77,42.5 9.7,3.25 23.12,5.29 30.89,0.9 4.86,-2.75 4.73,-19.07 2.72,-28.41 -10.24,-47.58 -20.81,-95.15 -33.23,-142.21 -10.51,-39.81 -24.26,-78.76 -35.26,-118.46 -2.19,-7.93 0.68,-17.74 2.82,-26.27 2.89,-11.45 -1.16,-15.92 -12.29,-15.96 -6.48,-0.03 -12.97,-0.53 -19.45,-0.81 -0.08,-0.52 -0.17,-1.05 -0.25,-1.56" /><path
         id="path68"
         style="fill:#231f20;fill-opacity:1;fill-rule:evenodd;stroke:none"
         d="m 2709.36,1702.89 c -3.6,-15.98 1.7,-27.41 18.48,-33.4 3.61,-1.29 5.68,-6.9 8.46,-10.52 -4.06,-3.04 -8.27,-8.85 -12.14,-8.63 -18.36,1.04 -27.67,-9.14 -33.25,-24.34 -8.9,-24.27 -18.41,-48.42 -25.42,-73.27 -4.61,-16.35 -16.79,-31.1 -11.64,-49.97 2.84,-10.37 3.53,-21.39 6.84,-31.57 3.11,-9.61 0.99,-14.88 -8.97,-15.4 -32.71,-1.7 -50.94,7.44 -48.25,44.83 1.38,19.12 6.97,38.04 11.66,56.8 5.31,21.25 12.74,42.02 17.27,63.42 2.06,9.73 -1.25,20.49 -0.97,30.76 0.2,7.84 -0.65,18.75 3.9,22.92 20.13,18.44 41.92,35.09 63.6,51.76 1.41,1.08 9.22,-2.42 9.94,-4.95 1.57,-5.53 0.49,-11.82 0.49,-18.44" /><path
         id="path70"
         style="fill:#231f20;fill-opacity:1;fill-rule:evenodd;stroke:none"
         d="m 2198.06,1716.92 c 0.65,-7.91 1.31,-12.66 1.39,-17.41 0.32,-18.02 8.53,-30.19 25.76,-36.24 2.95,-1.04 5.37,-3.6 8.03,-5.45 -2.45,-2.75 -4.78,-5.65 -7.42,-8.19 -0.99,-0.96 -2.72,-1.62 -4.12,-1.62 -30.51,0.04 -36.33,-23.01 -42.55,-45.54 -8.2,-29.66 -16.36,-59.33 -24.2,-89.08 -5.08,-19.23 0.51,-36.31 11.53,-52.18 2.11,-3.04 5.14,-8.63 4,-10.05 -2.32,-2.89 -7.04,-4.43 -11.03,-5.25 -4.33,-0.89 -8.96,-0.4 -13.45,-0.4 -25.9,0.03 -33.13,6.93 -36.71,32.8 -5.26,38.03 8.53,72.89 17.11,108.64 4.78,19.93 9.64,39.66 1.73,60.26 -1.69,4.41 0.71,12.01 3.77,16.32 16.22,22.85 38.73,38.19 66.16,53.39" /><path
         id="path72"
         style="fill:#231f20;fill-opacity:1;fill-rule:evenodd;stroke:none"
         d="m 3068.55,1717.41 c 9.34,-23.99 -10,-51.91 18.53,-67.31 -3.86,-3.28 -5.69,-5.99 -8.1,-6.7 -20.76,-6.11 -29.35,-21.47 -34.51,-41.18 -8.23,-31.32 -17.29,-62.5 -27.61,-93.19 -6.28,-18.66 -9,-35.17 5.72,-51.33 9.13,-10.02 -0.84,-12.9 -8.02,-14.48 -31.95,-7 -53.37,13.49 -47.81,48.89 4,25.41 13.14,50 19.96,74.96 4.59,16.78 10.13,33.4 13.27,50.46 1.32,7.24 -1.25,15.88 -4.11,23.06 -4.1,10.36 -2.11,19.18 7.45,22.63 22.99,8.32 35.61,28.12 52.17,43.6 3.15,2.95 6.7,5.46 13.06,10.59" /><path
         id="path74"
         style="fill:#231f20;fill-opacity:1;fill-rule:evenodd;stroke:none"
         d="m 2313.04,1453.46 c -0.5,0.03 -0.99,0.08 -1.49,0.1 -32.07,1.48 -30.14,1.53 -22.02,31.1 10.66,38.8 17.29,78.73 24.84,118.34 0.99,5.19 -1.62,12.1 -4.68,16.85 -6.23,9.64 -5.07,18.45 1.73,26.12 13.29,14.99 31.18,21.02 50.61,21.72 3.26,0.12 8.68,-5.4 9.69,-9.22 1.75,-6.54 2.27,-14.15 0.76,-20.72 -8.5,-36.8 -18.21,-73.31 -26.48,-110.15 -2.91,-12.94 -5.61,-26.94 -3.7,-39.74 4.24,-28.3 -0.65,-35.42 -29.26,-34.4" /><path
         id="path76"
         style="fill:#231f20;fill-opacity:1;fill-rule:evenodd;stroke:none"
         d="m 2380.83,1754.2 c -2.92,4.73 -9.4,11.35 -8.09,13.83 3.76,7.09 10.69,12.49 16.38,18.56 3.75,-4.34 11.32,-9.69 10.49,-12.8 -1.91,-7.29 -7.88,-13.5 -12.21,-20.15 -2.19,0.19 -4.39,0.37 -6.57,0.56" /></g></g></svg>